<?xml version="1.0" encoding="UTF-8" standalone="no"?>
<svg width="800" height="600" xmlns="http://www.w3.org/2000/svg">
  <rect width="100%" height="100%" fill="#f0f0f0"/>
  <polyline points="50,500 150,450 250,350 350,400 450,200 550,250 650,100 750,150" 
            stroke="#3498db" stroke-width="5" fill="none"/>
  <polyline points="50,550 150,500 250,530 350,450 450,480 550,420 650,350 750,370" 
            stroke="#e74c3c" stroke-width="5" fill="none"/>
  
  <!-- X-axis -->
  <line x1="50" y1="550" x2="750" y2="550" stroke="#333" stroke-width="2"/>
  <!-- Y-axis -->
  <line x1="50" y1="50" x2="50" y2="550" stroke="#333" stroke-width="2"/>
  
  <!-- Grid lines -->
  <g stroke="#ccc" stroke-width="1">
    <line x1="50" y1="450" x2="750" y2="450"/>
    <line x1="50" y1="350" x2="750" y2="350"/>
    <line x1="50" y1="250" x2="750" y2="250"/>
    <line x1="50" y1="150" x2="750" y2="150"/>
    <line x1="150" y1="50" x2="150" y2="550"/>
    <line x1="250" y1="50" x2="250" y2="550"/>
    <line x1="350" y1="50" x2="350" y2="550"/>
    <line x1="450" y1="50" x2="450" y2="550"/>
    <line x1="550" y1="50" x2="550" y2="550"/>
    <line x1="650" y1="50" x2="650" y2="550"/>
  </g>
</svg>